<svg width="84" height="83" viewBox="0 0 84 83" fill="none" xmlns="http://www.w3.org/2000/svg">
<path id="Vector" d="M42.2477 37.2581C47.726 37.2581 52.9799 39.4349 56.8536 43.3096C60.7274 47.1842 62.9036 52.4394 62.9036 57.919V82.7121H54.6413V57.919C54.6414 54.757 53.4336 51.7145 51.2649 49.4139C49.0962 47.1134 46.1306 45.7287 42.9748 45.5432L42.2477 45.5225C39.0865 45.5223 36.0447 46.7304 33.7447 48.8997C31.4447 51.0689 30.0603 54.0352 29.8749 57.1918L29.8542 57.919V82.7121H21.5919V57.919C21.5919 52.4394 23.7681 47.1842 27.6418 43.3096C31.5156 39.4349 36.7695 37.2581 42.2477 37.2581ZM15.3951 49.6547C16.5477 49.6547 17.6673 49.791 18.7414 50.0431C18.035 52.1464 17.6168 54.3357 17.4979 56.5513L17.4607 57.919V58.2744C16.9859 58.1044 16.4919 57.9934 15.99 57.9438L15.3951 57.919C13.8547 57.9191 12.3695 58.4931 11.2292 59.529C10.0889 60.5649 9.37518 61.9886 9.22729 63.5223L9.19838 64.1173V82.7121H0.936035V64.1173C0.936035 60.2816 2.4594 56.603 5.17101 53.8907C7.88261 51.1784 11.5603 49.6547 15.3951 49.6547ZM69.1003 49.6547C72.9351 49.6547 76.6129 51.1784 79.3245 53.8907C82.0361 56.603 83.5594 60.2816 83.5594 64.1173V82.7121H75.2971V64.1173C75.297 62.5765 74.7232 61.0909 73.6875 59.9503C72.6518 58.8097 71.2286 58.0959 69.6952 57.948L69.1003 57.919C68.3774 57.919 67.6834 58.043 67.0348 58.2703V57.919C67.0348 55.167 66.5886 52.5224 65.7582 50.0514C66.8525 49.7864 67.9745 49.6532 69.1003 49.6547ZM15.3951 24.8616C18.1343 24.8616 20.7612 25.95 22.6981 27.8873C24.6349 29.8246 25.7231 32.4522 25.7231 35.192C25.7231 37.9319 24.6349 40.5594 22.6981 42.4968C20.7612 44.4341 18.1343 45.5225 15.3951 45.5225C12.656 45.5225 10.029 44.4341 8.09219 42.4968C6.15532 40.5594 5.06721 37.9319 5.06721 35.192C5.06721 32.4522 6.15532 29.8246 8.09219 27.8873C10.029 25.95 12.656 24.8616 15.3951 24.8616ZM69.1003 24.8616C71.8395 24.8616 74.4664 25.95 76.4033 27.8873C78.3402 29.8246 79.4283 32.4522 79.4283 35.192C79.4283 37.9319 78.3402 40.5594 76.4033 42.4968C74.4664 44.4341 71.8395 45.5225 69.1003 45.5225C66.3612 45.5225 63.7343 44.4341 61.7974 42.4968C59.8605 40.5594 58.7724 37.9319 58.7724 35.192C58.7724 32.4522 59.8605 29.8246 61.7974 27.8873C63.7343 25.95 66.3612 24.8616 69.1003 24.8616ZM15.3951 33.126C14.8473 33.126 14.3219 33.3436 13.9345 33.7311C13.5472 34.1186 13.3295 34.6441 13.3295 35.192C13.3295 35.74 13.5472 36.2655 13.9345 36.653C14.3219 37.0405 14.8473 37.2581 15.3951 37.2581C15.943 37.2581 16.4683 37.0405 16.8557 36.653C17.2431 36.2655 17.4607 35.74 17.4607 35.192C17.4607 34.6441 17.2431 34.1186 16.8557 33.7311C16.4683 33.3436 15.943 33.126 15.3951 33.126ZM69.1003 33.126C68.5525 33.126 68.0271 33.3436 67.6398 33.7311C67.2524 34.1186 67.0348 34.6441 67.0348 35.192C67.0348 35.74 67.2524 36.2655 67.6398 36.653C68.0271 37.0405 68.5525 37.2581 69.1003 37.2581C69.6482 37.2581 70.1736 37.0405 70.5609 36.653C70.9483 36.2655 71.1659 35.74 71.1659 35.192C71.1659 34.6441 70.9483 34.1186 70.5609 33.7311C70.1736 33.3436 69.6482 33.126 69.1003 33.126ZM42.2477 0.068512C46.6304 0.068512 50.8335 1.80993 53.9325 4.90966C57.0314 8.0094 58.7724 12.2135 58.7724 16.5972C58.7724 20.9809 57.0314 25.1851 53.9325 28.2848C50.8335 31.3845 46.6304 33.126 42.2477 33.126C37.8651 33.126 33.662 31.3845 30.563 28.2848C27.464 25.1851 25.7231 20.9809 25.7231 16.5972C25.7231 12.2135 27.464 8.0094 30.563 4.90966C33.662 1.80993 37.8651 0.068512 42.2477 0.068512ZM42.2477 8.33287C40.0564 8.33287 37.9549 9.20358 36.4054 10.7534C34.8559 12.3033 33.9854 14.4054 33.9854 16.5972C33.9854 18.7891 34.8559 20.8911 36.4054 22.441C37.9549 23.9909 40.0564 24.8616 42.2477 24.8616C44.4391 24.8616 46.5406 23.9909 48.0901 22.441C49.6396 20.8911 50.5101 18.7891 50.5101 16.5972C50.5101 14.4054 49.6396 12.3033 48.0901 10.7534C46.5406 9.20358 44.4391 8.33287 42.2477 8.33287Z" fill="black"/>
</svg>
