<svg width="84" height="83" viewBox="0 0 84 83" fill="none" xmlns="http://www.w3.org/2000/svg">
<path id="Vector" d="M78.8637 1.63882C74.2258 0.599862 69.4878 0.0732978 64.7351 0.0685938C60.2465 -0.216469 55.7459 0.388831 51.492 1.84968C47.2381 3.31054 43.3149 5.59812 39.948 8.58089C35.5139 13.0161 31.1211 17.4375 26.7696 21.8452C21.7709 21.308 9.91441 21.0188 1.98256 29.0352C1.21313 29.8094 0.78125 30.8567 0.78125 31.9484C0.78125 33.04 1.21313 34.0873 1.98256 34.8616L48.6648 81.6378C49.4388 82.4075 50.4859 82.8394 51.5773 82.8394C52.6687 82.8394 53.7157 82.4075 54.4898 81.6378C62.5455 73.3735 62.2977 61.7207 61.8019 56.8448L75.063 43.6218C88.2414 30.4401 82.2512 5.68836 82.0034 4.65531C81.8126 3.91001 81.4177 3.23277 80.863 2.69983C80.3083 2.1669 79.6159 1.79943 78.8637 1.63882ZM69.1141 37.7954L54.4071 52.4233C53.9308 52.9044 53.58 53.4951 53.3855 54.1436C53.191 54.7921 53.1588 55.4784 53.2917 56.1423C54.1841 61.6703 53.4074 67.339 51.0609 72.4231L11.1125 32.3822C16.2758 30.0053 22.0477 29.2836 27.6371 30.3162C28.2984 30.4023 28.9707 30.327 29.5966 30.0967C30.2225 29.8665 30.7834 29.4881 31.2313 28.9939C31.2313 28.9939 37.0149 23.0022 45.7317 14.2833C51.0916 9.97804 57.8776 7.85319 64.7351 8.33296C67.9606 8.34894 71.1796 8.62532 74.3607 9.15939C75.3522 15.0684 76.922 29.9856 69.1141 37.7954Z" fill="black"/>
</svg>
