<svg width="80" height="64" viewBox="0 0 80 64" fill="none" xmlns="http://www.w3.org/2000/svg">
<path id="Vector" d="M7.02477 9.09212C12.589 3.05847 21.0086 0 32.0458 0H36.0117V11.1827L32.8231 11.8213C27.3898 12.9083 23.6103 15.0464 21.5876 18.1842C20.5323 19.8746 19.9337 21.8102 19.8506 23.8014H32.0458C33.0976 23.8014 34.1064 24.2193 34.8501 24.9632C35.5939 25.7072 36.0117 26.7162 36.0117 27.7683V55.5365C36.0117 59.912 32.4543 63.4703 28.0799 63.4703H4.28432C3.23249 63.4703 2.22374 63.0524 1.47999 62.3084C0.736231 61.5645 0.318394 60.5555 0.318394 59.5034V39.6689L0.330292 28.0896C0.294599 27.6492 -0.458927 17.2163 7.02477 9.09212ZM71.705 63.4703H47.9095C46.8577 63.4703 45.8489 63.0524 45.1052 62.3084C44.3614 61.5645 43.9436 60.5555 43.9436 59.5034V39.6689L43.9555 28.0896C43.9198 27.6492 43.1662 17.2163 50.6499 9.09212C56.2141 3.05847 64.6338 0 75.671 0H79.6369V11.1827L76.4483 11.8213C71.015 12.9083 67.2354 15.0464 65.2128 18.1842C64.1575 19.8746 63.5589 21.8102 63.4757 23.8014H75.671C76.7228 23.8014 77.7315 24.2193 78.4753 24.9632C79.219 25.7072 79.6369 26.7162 79.6369 27.7683V55.5365C79.6369 59.912 76.0794 63.4703 71.705 63.4703Z" fill="black"/>
</svg>
