<svg width="83" height="76" viewBox="0 0 83 76" fill="none" xmlns="http://www.w3.org/2000/svg">
<path id="Vector" d="M81.2437 68.1782H7.96707V1.70175C7.96707 1.23301 7.58365 0.849487 7.11502 0.849487H1.15064C0.682008 0.849487 0.298584 1.23301 0.298584 1.70175V74.9963C0.298584 75.465 0.682008 75.8486 1.15064 75.8486H81.2437C81.7123 75.8486 82.0958 75.465 82.0958 74.9963V69.0305C82.0958 68.5617 81.7123 68.1782 81.2437 68.1782ZM19.2355 51.7402C19.5657 52.0704 20.0982 52.0704 20.439 51.7402L35.1689 37.0813L48.7592 50.7601C49.0893 51.0903 49.6325 51.0903 49.9627 50.7601L79.2946 21.4316C79.6248 21.1014 79.6248 20.5581 79.2946 20.2278L75.077 16.0091C74.9168 15.8505 74.7006 15.7615 74.4752 15.7615C74.2499 15.7615 74.0336 15.8505 73.8735 16.0091L49.3769 40.501L35.8079 26.8435C35.6478 26.6849 35.4315 26.5959 35.2062 26.5959C34.9808 26.5959 34.7646 26.6849 34.6044 26.8435L15.0285 46.307C14.8699 46.4672 14.7809 46.6835 14.7809 46.9089C14.7809 47.1344 14.8699 47.3507 15.0285 47.5108L19.2355 51.7402Z" fill="black"/>
</svg>
